<svg width="25" height="25" viewBox="0 0 25 25" fill="none" xmlns="http://www.w3.org/2000/svg">
    <path d="M19.541 0.943115H5.54102C2.78002 0.943115 0.541016 3.18212 0.541016 5.94312V19.9431C0.541016 22.7041 2.78002 24.9431 5.54102 24.9431H19.541C22.303 24.9431 24.541 22.7041 24.541 19.9431V5.94312C24.541 3.18212 22.303 0.943115 19.541 0.943115ZM8.54102 19.9431H5.54102V8.94312H8.54102V19.9431ZM7.04102 7.67512C6.07502 7.67512 5.29102 6.88512 5.29102 5.91112C5.29102 4.93712 6.07502 4.14712 7.04102 4.14712C8.00702 4.14712 8.79102 4.93712 8.79102 5.91112C8.79102 6.88512 8.00802 7.67512 7.04102 7.67512ZM20.541 19.9431H17.541V14.3391C17.541 10.9711 13.541 11.2261 13.541 14.3391V19.9431H10.541V8.94312H13.541V10.7081C14.937 8.12212 20.541 7.93112 20.541 13.1841V19.9431Z" fill="#4F4F4F"/>
</svg>
