<svg viewBox="0 0 345 106" fill="none" xmlns="http://www.w3.org/2000/svg">
    <path d="M84.8003 1C85.0003 1 85.2003 1 85.4003 1C93.3003 1 101.1 1 109 1C112.8 1 116.4 1.9 119.7 3.8C123.5 6.1 126 9.5 127.5 13.6C129.1 18 129.5 22.5 129.1 27.1C128.9 29.8 128.4 32.5 127.3 35C124.9 40.9 120.6 44.5 114.6 46.2C111.9 47 109.1 47.3 106.3 47.3C99.5003 47.3 92.7003 47.3 85.9003 47.3C85.6003 47.3 85.3003 47.3 85.0003 47.3C84.6003 46.5 84.6003 2.1 84.8003 1ZM99.0003 12.9C99.0003 20.4 99.0003 27.9 99.0003 35.4C99.2003 35.4 99.3003 35.5 99.4003 35.5C101.6 35.5 103.8 35.6 105.9 35.5C110 35.2 112.8 33.1 114.1 29.3C115 26.5 115.2 23.7 114.6 20.9C113.6 16.5 111 13.9 106.5 13.1C104.2 12.7 101.8 12.8 99.4003 12.8C99.3003 12.7 99.1003 12.8 99.0003 12.9Z" fill="#E5E5E6"/>
    <path d="M82.0998 18.6C82.0998 22.3 82.0998 25.8 82.0998 29.6C79.2998 29.7 76.5998 29.6 73.8998 29.6C71.1998 29.6 68.3998 29.6 65.6998 29.6C62.9998 29.6 60.1998 29.6 57.3998 29.6C57.3998 31.6 57.3998 33.5 57.3998 35.5C65.5998 35.5 73.8998 35.5 82.0998 35.5C82.3998 36.4 82.3998 46.4 82.0998 47.3C69.1998 47.3 56.1998 47.3 43.2998 47.3C43.0998 46.5 42.9998 3.40001 43.1998 1.10001C43.9998 0.900008 79.2998 0.800008 82.0998 1.00001C82.2998 1.70001 82.3998 11.6 82.0998 12.8C73.8998 12.8 65.6998 12.8 57.3998 12.8C57.3998 14.8 57.3998 16.7 57.3998 18.7C65.5998 18.6 73.7998 18.6 82.0998 18.6Z" fill="#E5E5E6"/>
    <path d="M242.9 47.2C240.8 47.2 238.9 47.2 236.8 47.2C232.5 34.6 228.2 21.9 223.9 9.20001C223.6 11.7 223.7 14.2 223.7 16.7C223.7 19.2 223.7 21.8 223.8 24.3C223.8 26.8 223.8 29.4 223.8 31.9C223.8 34.4 223.8 37 223.8 39.5C223.8 42 223.8 44.6 223.8 47.2C221.8 47.2 219.9 47.2 218 47.2C218 32 218 16.8 218 1.50001C220.9 1.50001 223.8 1.50001 226.8 1.50001C231.1 14.3 235.5 27.1 239.8 39.9C242.2 33.6 244.3 27.2 246.5 20.8C248.7 14.4 250.8 8.00001 253 1.60001C253.8 1.40001 259.7 1.30001 261.6 1.50001C261.8 2.20001 261.9 45.7 261.7 47.2C259.8 47.2 257.9 47.2 255.9 47.2C255.9 34.5 255.8 21.9 256 9.20001C255.1 11.2 254.5 13.3 253.7 15.4C253 17.5 252.3 19.6 251.6 21.7C250.9 23.8 250.2 26 249.4 28.1C248.7 30.2 248 32.4 247.2 34.5C246.5 36.6 245.8 38.7 245.1 40.8C244.4 42.9 243.6 45.1 242.9 47.2Z" fill="#E5E5E6"/>
    <path d="M27.5004 47.3C22.7004 47.3 18.1004 47.3 13.3004 47.3C13.3004 46 13.3004 44.8 13.3004 43.5C13.3004 42.2 13.3004 41 13.3004 39.7C13.3004 38.4 13.3004 37.1 13.3004 35.8C13.3004 34.5 13.3004 33.3 13.3004 32C13.3004 30.7 13.3004 29.5 13.3004 28.2C13.3004 26.9 13.3004 25.7 13.3004 24.4C13.3004 23.1 13.3004 21.8 13.3004 20.5C13.3004 19.2 13.3004 18 13.3004 16.7C13.3004 15.4 13.3004 14.2 13.3004 12.8C12.8004 12.8 12.4004 12.7 12.0004 12.7C8.50042 12.7 5.10042 12.7 1.60042 12.7C1.20042 12.7 0.800425 12.7 0.400425 12.7C0.200425 11.9 0.100422 3.00001 0.300422 1.10001C1.10042 0.900008 37.8004 0.800008 40.4004 1.00001C40.6004 1.70001 40.7004 10.5 40.5004 12.7C40.1004 12.7 39.7004 12.8 39.3004 12.8C35.8004 12.8 32.4004 12.8 28.9004 12.8C28.5004 12.8 28.1004 12.8 27.6004 12.8C27.6004 13.4 27.5004 13.9 27.5004 14.4C27.5004 24.9 27.5004 35.4 27.5004 45.9C27.5004 46.2 27.5004 46.7 27.5004 47.3Z" fill="#E5E5E6"/>
    <path d="M271.7 1.5C273.7 1.5 275.7 1.5 277.9 1.5C277.9 2 277.9 2.4 277.9 2.8C277.9 11.6 277.9 20.5 277.9 29.3C277.9 31.3 278.1 33.4 278.7 35.3C279.2 36.9 279.9 38.3 281 39.6C282.7 41.7 285 42.6 287.6 42.9C289.7 43.1 291.8 43 293.8 42.4C297.9 41.3 300.3 38.5 301.1 34.4C301.4 32.8 301.5 31.2 301.5 29.6C301.5 20.7 301.5 11.8 301.5 2.9C301.5 2.5 301.5 2.1 301.5 1.6C303.6 1.6 305.6 1.6 307.7 1.6C307.7 1.9 307.8 2.2 307.8 2.5C307.8 10.8 307.8 19.2 307.8 27.5C307.8 30.6 307.6 33.6 306.8 36.6C305.2 42.7 301.4 46.5 295.3 47.9C291.4 48.8 287.5 48.7 283.7 47.8C277.6 46.3 274.1 42.3 272.6 36.3C272 33.6 271.7 30.8 271.7 28C271.7 19.5 271.7 11 271.7 2.6C271.6 2.1 271.7 1.8 271.7 1.5Z" fill="#E5E5E6"/>
    <path d="M209.6 15.1C207.6 15.1 205.7 15.1 203.7 15.1C203.6 14.8 203.5 14.6 203.4 14.3C201.8 8.89998 198.3 6.09998 192.7 5.69998C190.6 5.59998 188.6 5.59998 186.6 6.29998C182.3 7.69998 179.4 10.6 177.8 14.8C177 16.8 176.6 18.9 176.4 21.1C176.1 24.6 176.1 28.1 176.9 31.6C177.4 33.7 178.3 35.7 179.5 37.6C181.3 40.3 183.8 42 187 42.7C189.2 43.2 191.5 43.3 193.7 42.9C197 42.3 199.6 40.5 201.4 37.6C202.5 35.8 203.2 33.9 203.7 31.9C203.8 31.5 203.9 31.2 204 30.7C206 30.6 207.9 30.6 210.1 30.7C209.9 31.9 209.7 33 209.4 34.1C207.7 40.3 204.1 44.9 198 47.3C194.5 48.7 190.9 48.9 187.2 48.5C181.8 47.8 177.5 45.3 174.3 41C172.4 38.5 171.3 35.6 170.7 32.5C169.6 27.1 169.5 21.7 170.8 16.3C171.7 12.6 173.4 9.29998 176 6.49998C178.7 3.49998 182.1 1.69998 186.1 0.89998C190.3 0.0999796 194.5 0.0999804 198.6 1.59998C204.8 3.79998 208.4 8.39998 209.6 14.9C209.7 14.7 209.6 14.9 209.6 15.1Z" fill="#E5E5E6"/>
    <path d="M140.7 14.8C137.5 10.2 134.4 5.60005 131.2 0.900049C134.7 0.900049 138.1 0.900049 141.6 0.900049C142.8 3.10005 144.1 5.30005 145.5 7.70005C145.8 7.30005 146 7.00005 146.2 6.70005C147.2 5.00005 148.2 3.20005 149.2 1.50005C149.4 1.10005 149.6 0.800049 150.1 0.800049C153.2 0.800049 156.4 0.800049 159.5 0.800049C159.6 0.800049 159.6 0.800049 159.8 0.900049C156.7 5.50005 153.5 10.1001 150.3 14.7001C153.6 19.5001 156.8 24.2 160.1 29.1C159.8 29.2 159.5 29.3 159.3 29.3C156.4 29.3 153.5 29.3 150.5 29.3C149.9 29.3 149.6 29.1 149.3 28.6C148.3 26.9 147.2 25.2001 146.2 23.4001C146 23.0001 145.7 22.6 145.4 22.1C145.1 22.5 144.9 22.8 144.7 23.1C143.6 24.9 142.5 26.7 141.5 28.6C141.2 29.1 140.9 29.3 140.3 29.3C137.3 29.3 134.4 29.3 131.4 29.3C131.2 29.3 131.1 29.3001 130.7 29.2001C134.1 24.4001 137.4 19.7 140.7 14.8Z" fill="#E5E5E6"/>
    <path d="M119.5 96.5C120.5 92.2 121.5 88 122.5 83.6C124.2 83.6 125.8 83.6 127.6 83.6C127.6 89.3 127.6 94.9 127.6 100.6C126.5 100.6 125.5 100.6 124.4 100.6C124.4 96.1 124.4 91.7 124.4 87.2C124.3 87.2 124.3 87.2 124.2 87.2C123.2 91.7 122.2 96.1 121.2 100.6C120.1 100.6 118.9 100.6 117.7 100.6C116.7 96.1 115.7 91.7 114.7 87.2C114.6 87.2 114.6 87.2 114.5 87.2C114.5 91.6 114.5 96.1 114.5 100.6C113.4 100.6 112.4 100.6 111.4 100.6C111.2 99.8 111.1 84.7 111.4 83.6C113 83.6 114.7 83.6 116.4 83.6C117.4 87.9 118.4 92.2 119.4 96.5C119.4 96.5 119.5 96.5 119.5 96.5Z" fill="#E5E5E6"/>
    <path d="M69.5997 102C70.7997 102 71.8997 102 72.9997 102C73.8997 103.2 75.6997 103.6 76.9997 102.8C77.4997 102.5 77.8997 102 77.9997 101.5C78.0997 100.8 78.1997 100 78.2997 99.1C78.0997 99.2 77.9997 99.2 77.8997 99.2C75.7997 101.3 72.4997 101.2 70.6997 98.9C70.3997 98.5 70.0997 98.2 69.9997 97.7C68.9997 95 68.9997 92.4 70.4997 89.9C71.5997 88 73.7997 87.2 75.9997 87.7C76.8997 87.9 77.5997 88.6 78.2997 89.4C78.2997 88.8 78.3997 88.5 78.3997 88C79.3997 88 80.3997 88 81.4997 88C81.4997 88.4 81.5997 88.7 81.5997 89C81.5997 92.6 81.5997 96.2 81.5997 99.9C81.5997 100.7 81.4997 101.4 81.3997 102.2C81.0997 103.6 80.2997 104.7 78.9997 105.2C76.6997 106.1 74.3997 106.2 72.0997 105.2C70.4997 104.6 69.6997 103.6 69.5997 102ZM72.4997 94.3C72.6997 95 72.7997 95.8 72.9997 96.5C73.3997 97.5 74.0997 98 75.1997 98C76.2997 98 77.1997 97.6 77.5997 96.6C78.3997 95 78.3997 93.3 77.4997 91.6C76.9997 90.6 76.0997 90.3 74.9997 90.3C73.9997 90.4 73.2997 90.9 72.8997 91.8C72.7997 92.7 72.6997 93.5 72.4997 94.3Z" fill="#E5E5E6"/>
    <path d="M193.1 83.5999C194.2 83.5999 195.4 83.5999 196.6 83.5999C196.6 83.9999 196.7 84.2999 196.7 84.6999C196.7 87.6999 196.7 90.5999 196.7 93.5999C196.7 94.2999 196.7 94.8999 196.8 95.5999C197 97.0999 197.9 97.8999 199.4 97.9999C199.8 97.9999 200.1 97.9999 200.5 97.9999C201.9 97.8999 202.7 97.1999 203 95.8999C203.1 95.2999 203.2 94.6999 203.2 94.0999C203.2 90.9999 203.2 87.9999 203.2 84.8999C203.2 84.4999 203.2 84.0999 203.2 83.7999C204 83.4999 205.4 83.4999 206.7 83.6999C206.7 83.9999 206.8 84.1999 206.8 84.4999C206.8 87.8999 206.8 91.2999 206.8 94.5999C206.8 95.0999 206.8 95.5999 206.7 96.0999C206.3 98.7999 204.8 100.4 202.1 100.9C200.6 101.2 199 101.2 197.5 100.8C195 100.2 193.6 98.5999 193.3 96.0999C193.2 95.4999 193.1 94.7999 193.1 94.1999C193.1 90.8999 193.1 87.4999 193.1 84.1999C193.1 83.9999 193.1 83.8999 193.1 83.5999Z" fill="#E5E5E6"/>
    <path d="M17.1997 89.2C16.0997 89.2 14.9997 89.2 13.7997 89.2C13.6997 89 13.5997 88.8 13.4997 88.5C12.5997 85.8 8.49967 85.7 7.19967 87.6C6.79967 88.1 6.49967 88.7 6.29967 89.3C5.69967 91.2 5.59967 93.2 6.19967 95.1C6.79967 97.1 8.39967 98.2 10.3997 98.1C11.6997 98 12.5997 97.4 13.1997 96.3C13.3997 95.9 13.5997 95.4 13.7997 94.9C14.8997 94.9 15.9997 94.9 17.2997 94.9C16.8997 97.1 15.9997 98.8 14.2997 100C10.3997 102.7 4.59967 100.9 2.99967 96.4C1.99967 93.6 1.99966 90.8 3.09966 88C4.09966 85.4 5.99967 83.8 8.79967 83.4C10.3997 83.2 11.9997 83.3 13.4997 83.9C15.6997 84.8 16.9997 86.4 17.3997 88.8C17.1997 88.8 17.1997 89 17.1997 89.2Z" fill="#E5E5E6"/>
    <path d="M278.5 73C278.5 68.3 278.5 63.8 278.5 59.1C278.8 59.1 279.1 59 279.4 59C281.1 59 282.9 59 284.6 59C288.1 59 290.3 61 290.8 64.5C291 65.9 290.9 67.2 290.5 68.6C289.8 71.1 288.1 72.7 285.5 72.9C283.2 73.2 280.9 73 278.5 73ZM281.6 70.5C282.7 70.5 283.8 70.6 284.8 70.5C286.2 70.4 287.2 69.5 287.6 68.1C288 66.7 287.9 65.4 287.5 64.1C287.1 63 286.4 62.3 285.2 62C284 61.7 282.8 61.9 281.6 61.9C281.6 64.7 281.6 67.5 281.6 70.5Z" fill="#E5E5E6"/>
    <path d="M22.4 91.9C21.3 91.9 20.3 91.9 19.4 91.9C19.4 90.1 20.3 88.7 21.8 88.1C24 87.3 26.2 87.4 28.3 88.4C29.2 88.8 29.7 89.5 29.9 90.5C30 91 30 91.5 30 92.1C30 94.2 30 96.3 30 98.3C30 99.5 30 99.5 30.7 100.5C29.5 100.7 28.4 100.5 27.2 100.6C27.1 100.1 26.9 99.7 26.8 99.3C26.5 99.6 26.2 99.8 25.9 100C24.6 101 23.2 101.2 21.7 100.9C20.2 100.6 19.1 99.3 19 97.8C18.8 95.9 19.5 94.3 21.2 93.7C22.3 93.3 23.5 93.2 24.7 92.9C25.2 92.8 25.7 92.7 26.1 92.6C26.6 92.4 26.9 92.1 26.8 91.6C26.8 91 26.5 90.6 26 90.5C25.2 90.4 24.4 90.4 23.6 90.5C22.8 90.6 22.6 91.3 22.4 91.9ZM26.6 94.6C25.6 94.8 24.7 95 23.7 95.3C23.4 95.4 23 95.5 22.7 95.7C22.1 96.1 22 96.8 22.1 97.5C22.2 98.2 22.6 98.5 23.2 98.6C24.6 99 26.3 98 26.5 96.5C26.7 95.9 26.6 95.3 26.6 94.6Z" fill="#E5E5E6"/>
    <path d="M255.5 95.3C252.5 95.3 249.6 95.3 246.7 95.3C246.7 96.9 247.3 97.8 248.5 98.3C249.9 98.8 251 98.5 252.2 97C253.1 97 254 97 254.9 97C255 97 255.2 97 255.3 97.1C255.3 97.8 255 98.3 254.6 98.7C253.3 100.6 251.3 101.2 249.2 101.1C248.7 101.1 248.3 101 247.8 100.9C245.4 100.2 243.8 98.8 243.4 96.2C243.2 94.7 243.2 93.1 243.7 91.6C244.4 89.5 245.8 88.3 248 87.8C249.1 87.6 250.2 87.6 251.3 87.9C253.2 88.4 254.4 89.7 255.1 91.6C255.5 92.7 255.6 93.9 255.5 95.3ZM252.1 93C251.7 91.1 250.6 90.2 249 90.4C247.7 90.5 246.8 91.6 246.8 93C248.6 93 250.3 93 252.1 93Z" fill="#E5E5E6"/>
    <path d="M102.2 95.3C99.1999 95.3 96.3 95.3 93.4 95.3C93.4 97 94 97.9 95.3 98.3C96.5 98.7 97.8 98.6 98.8 97C99.8 97 100.9 97 102 97C102 97.7 101.7 98.2 101.3 98.7C100 100.6 98 101.2 95.8 101.1C95.3 101.1 94.9 101 94.4 100.9C92 100.2 90.3999 98.8 89.9999 96.2C89.7999 94.7 89.8 93.2 90.3 91.7C91 89.6 92.3999 88.3 94.5999 87.8C95.6999 87.6 96.7999 87.6 97.8999 87.9C99.7999 88.4 101 89.7 101.6 91.5C102.3 92.7 102.4 93.9 102.2 95.3ZM98.8 93C98.6 91.2 97.6 90.3 95.9 90.4C94.5 90.5 93.5999 91.6 93.5999 93C95.2999 93 97.1 93 98.8 93Z" fill="#E5E5E6"/>
    <path d="M141.9 95.3C140.3 95.3 138.9 95.3 137.5 95.3C136.1 95.3 134.6 95.3 133.2 95.3C133 96.6 133.6 97.7 134.7 98.2C135.9 98.8 137.4 98.6 138.1 97.6C138.5 97.1 138.9 96.9 139.5 97C140.2 97 141 97 141.7 97C141.9 97.6 141.5 98.1 141.2 98.5C139.9 100.5 137.9 101.2 135.6 101.1C134.7 101 133.8 100.8 133 100.4C131.1 99.6 130.1 98 129.8 96C129.6 94.7 129.6 93.3 130 92C130.6 89.7 132.1 88.2 134.5 87.8C138.5 87.1 141.7 89.4 141.9 93.5C141.9 94.1 141.9 94.6 141.9 95.3ZM133.2 93C135 93 136.7 93 138.5 93C138.4 91.4 137.5 90.5 136 90.4C134.3 90.4 133.3 91.3 133.2 93Z" fill="#E5E5E6"/>
    <path d="M67.8999 96.9999C67.5999 97.6999 67.3999 98.1999 67.0999 98.6999C65.7999 100.6 63.8999 101.2 61.6999 101.1C60.7999 101 59.7999 100.8 58.9999 100.4C57.0999 99.5999 56.1999 98.0999 55.8999 96.0999C55.6999 94.6999 55.6999 93.3999 56.0999 91.9999C56.7999 89.6999 58.1999 88.2999 60.5999 87.8999C64.5999 87.1999 67.7999 89.4999 67.9999 93.6999C67.9999 94.1999 67.9999 94.6999 67.9999 95.2999C64.9999 95.2999 62.0999 95.2999 59.1999 95.2999C59.0999 97.5999 60.7999 98.7999 62.7999 98.3999C63.3999 98.2999 63.8999 97.9999 64.2999 97.4999C64.5999 97.0999 64.8999 96.9999 65.3999 96.9999C65.9999 96.9999 66.7999 96.9999 67.8999 96.9999ZM64.4999 93.0999C64.3999 91.3999 63.3999 90.4999 61.7999 90.4999C60.2999 90.4999 59.2999 91.3999 59.1999 93.0999C59.2999 93.0999 59.4999 93.1999 59.5999 93.1999C61.1999 93.0999 62.7999 93.0999 64.4999 93.0999Z" fill="#E5E5E6"/>
    <path d="M156.4 94.3C156.5 93.7 156.5 93 156.7 92.4C157.3 89.7 159.1 88.1 161.8 87.7C162.9 87.5 164 87.6 165.1 87.9C166.8 88.4 167.9 89.5 168.6 91C169.6 93.1 169.6 95.3 168.6 97.4C167.4 100.2 165.3 100.9 162.6 100.9C162 100.9 161.5 100.8 160.9 100.7C158.4 100.1 156.7 98 156.4 95.1C156.4 95 156.5 94.7 156.4 94.3ZM159.7 94.4C159.9 95.2 160 95.9 160.2 96.6C160.6 97.8 161.6 98.3 162.8 98.3C164 98.3 165 97.7 165.4 96.6C166 95.1 166 93.6 165.4 92.2C165 91 164.1 90.4 162.8 90.4C161.5 90.4 160.6 91 160.1 92.2C160 92.9 159.9 93.6 159.7 94.4Z" fill="#E5E5E6"/>
    <path d="M274.2 92.0001C273.5 90.5001 272.1 89.9001 270.6 90.5001C270.2 90.7001 269.8 91.0001 269.8 91.5001C269.8 92.0001 270.1 92.3001 270.6 92.4001C271.6 92.7001 272.6 92.9001 273.7 93.2001C274.4 93.4001 275.1 93.6001 275.7 93.9001C277.9 95.0001 278.4 97.8001 276.7 99.6001C276.2 100.1 275.5 100.6 274.8 100.8C273 101.4 271.1 101.3 269.3 100.8C267.6 100.3 266.2 98.7001 266.3 96.7001C266.8 96.7001 267.4 96.7001 267.9 96.7001C268.4 96.7001 268.9 96.7001 269.5 96.7001C269.7 97.5001 269.9 98.2001 270.8 98.4001C271.8 98.7001 272.9 98.7001 273.9 98.3001C274.3 98.1001 274.6 97.8001 274.4 97.4001C274.3 97.1001 274 96.7001 273.7 96.6001C273 96.3001 272.2 96.1001 271.4 95.9001C270.5 95.7001 269.6 95.5001 268.8 95.1001C266.7 94.3001 266 92.1001 267.1 90.2001C267.7 89.1001 268.6 88.5001 269.8 88.1001C271.4 87.7001 273 87.7001 274.6 88.3001C276.3 88.9001 277.1 90.0001 277.3 92.1001C276.2 92.1001 275.2 92.0001 274.2 92.0001Z" fill="#E5E5E6"/>
    <path d="M293.4 88.1C294.6 88.1 295.7 88.1 296.9 88.1C297.8 91 298.7 94 299.6 97C300.7 94.1 301.4 91.1 302.3 88.1C303.4 88.1 304.5 88.1 305.7 88.1C305.6 88.4 305.6 88.7 305.5 88.9C304 93.2 302.5 97.5 301 101.8C300.7 102.7 300.3 103.5 299.9 104.4C299.6 105.1 299 105.6 298.2 105.7C297.2 105.8 296.3 105.9 295.2 106C295.2 105 295.2 104.2 295.2 103.4C295.5 103.4 295.7 103.3 296 103.3C297.6 103.1 298.3 102.1 297.7 100.6C296.8 98 295.9 95.4 295 92.8C294.5 91.5 294.1 90.1 293.6 88.8C293.5 88.5 293.5 88.3 293.4 88.1Z" fill="#E5E5E6"/>
    <path d="M269.6 67.1C269.6 68.3 269.6 69.3 269.6 70.5C272.1 70.5 274.5 70.5 277 70.5C277 71.4 277 72.2 277 73.1C273.5 73.1 270 73.1 266.5 73.1C266.5 68.5 266.5 63.9 266.5 59.2C269.9 59.2 273.3 59.2 276.8 59.2C276.8 60 276.8 60.8 276.8 61.7C274.4 61.7 272 61.7 269.6 61.7C269.6 62.7 269.6 63.6 269.6 64.7C271.8 64.7 274 64.7 276.2 64.7C276.2 65.6 276.2 66.3 276.2 67.2C274.1 67.1 271.9 67.1 269.6 67.1Z" fill="#E5E5E6"/>
    <path d="M171.7 100.6C171.7 96.4 171.7 92.3 171.7 88.1C172.7 88.1 173.7 88.1 174.8 88.1C174.8 88.6 174.9 89 174.9 89.6C175.1 89.4 175.3 89.2 175.4 89.1C177 87.1 180.6 87.5 182 88.9C182.8 89.7 183.1 90.8 183.1 91.9C183.1 94.1 183.1 96.3 183.1 98.6C183.1 99.3 183.1 99.9 183.1 100.7C182 100.7 180.9 100.7 179.7 100.7C179.7 100.2 179.7 99.9 179.7 99.5C179.7 97.3 179.7 95.1 179.7 92.8C179.7 91.4 179.1 90.7 178 90.5C176.7 90.3 175.6 90.9 175.2 92.2C175 92.7 175 93.3 175 93.9C175 95.8 175 97.7 175 99.6C175 99.9 175 100.3 175 100.7C173.9 100.6 172.9 100.6 171.7 100.6Z" fill="#E5E5E6"/>
    <path d="M213.3 100.6C212.2 100.6 211.2 100.6 210.1 100.6C210.1 96.4 210.1 92.3 210.1 88.1C211.1 88.1 212.1 88.1 213.1 88.1C213.1 88.6 213.2 89 213.2 89.6C213.4 89.4 213.6 89.2 213.7 89.1C215.2 87.1 218.7 87.4001 220.2 88.8001C221 89.6001 221.3 90.6 221.4 91.7C221.5 94.7 221.4 97.6 221.4 100.6C220.3 100.6 219.2 100.6 218 100.6C218 100.2 218 99.9 218 99.5C218 97.5 218 95.6 218 93.6C218 93.2 218 92.9 218 92.5C217.9 91.3 217.4 90.6 216.5 90.4C215.3 90.1 214.1 90.6 213.7 91.7C213.4 92.3 213.3 93.1 213.3 93.7C213.2 95.6 213.3 97.5 213.3 99.4C213.3 99.8 213.3 100.2 213.3 100.6Z" fill="#E5E5E6"/>
    <path d="M53.5998 100.6C52.4998 100.6 51.3998 100.6 50.2998 100.6C50.2998 100.2 50.2998 99.8 50.2998 99.5C50.2998 97.5 50.2998 95.6 50.2998 93.6C50.2998 93.2 50.2998 92.9 50.2998 92.5C50.1998 91.3 49.6998 90.6 48.6998 90.4C47.4998 90.2 46.3998 90.6 45.8998 91.6C45.5998 92.3 45.4998 93 45.4998 93.7C45.3998 95.6 45.4998 97.5 45.4998 99.4C45.4998 99.7 45.4998 100.1 45.4998 100.5C44.3998 100.5 43.3998 100.5 42.2998 100.5C42.2998 96.3 42.2998 92.2 42.2998 87.9C42.7998 87.9 43.2998 87.9 43.7998 87.9C44.2998 87.9 44.7998 87.9 45.3998 87.9C45.4998 88.4 45.4998 88.9 45.5998 89.5C45.7998 89.3 45.8998 89.2 45.9998 89C47.4998 87 50.7998 87.3 52.2998 88.5C53.1998 89.2 53.5998 90.2 53.5998 91.3C53.6998 94.4 53.5998 97.5 53.5998 100.6Z" fill="#E5E5E6"/>
    <path d="M186.8 63.8C186.8 63.5 186.9 63.3 186.9 63C187.7 63 188.5 63 189.4 63C189.4 63.3 189.5 63.5 189.5 63.8C189.5 66.6 189.5 69.4 189.5 72.2C189.5 72.7 189.4 73.1 189.4 73.6C189.2 74.9 188.4 75.9 187.2 76.4C185.5 77.1 183.7 77.2 182 76.5C181.2 76.2 180.5 75.7 180.1 74.9C180 74.6 179.9 74.2 179.8 73.8C180.8 73.8 181.6 73.8 182.4 73.8C183.3 75 184.4 75.4 185.5 74.9C186.6 74.5 186.9 73.4 186.7 71.5C186 72.2 185.2 72.6 184.3 72.8C182.1 73.1 180.4 72 179.7 69.9C179.2 68.4 179.2 66.9 179.8 65.5C180.6 63.5 182.3 62.3 184.8 62.8C185.6 62.9 186.1 63.5 186.8 63.8ZM187 67.8C186.9 67.3 186.8 66.7 186.6 66.2C186.3 65.3 185.5 64.8 184.6 64.8C183.7 64.8 183 65.2 182.6 66.1C182.1 67.3 182.2 68.4 182.7 69.6C183.1 70.5 184 70.9 185 70.7C186.2 70.4 186.9 69.3 187 67.8Z" fill="#E5E5E6"/>
    <path d="M245.1 64C245.1 62.3 245.1 60.8 245.1 59.2C246 59.2 246.9 59.2 247.8 59.2C248 59.9 248 71 247.8 73C247 73 246.2 73 245.3 73C245.3 72.8 245.2 72.5 245.2 72.2C245.1 72.2 245 72.2 245 72.2C242.6 74.2 239.3 73.4 238.1 70.6C237.5 69 237.4 67.4 237.9 65.8C238.8 62.7 242.4 61.6 245.1 64ZM240.3 68C240.4 68.6 240.5 69.3 240.8 69.9C241.2 70.9 242 71.3 243.1 71.2C244.1 71.1 244.7 70.5 245 69.6C245.3 68.6 245.3 67.5 245 66.5C244.7 65.5 244 64.9 242.9 64.8C241.8 64.8 241 65.3 240.6 66.3C240.5 66.8 240.4 67.3 240.3 68Z" fill="#E5E5E6"/>
    <path d="M108.8 59.1C109.8 59.1 110.6 59.1 111.5 59.1C111.5 63.7 111.5 68.3 111.5 73C110.7 73 109.9 73 109 73C109 72.7 108.9 72.5 108.9 72.1C108.8 72.2 108.7 72.2 108.6 72.2C106.5 74 103.4 73.5 102.1 71.1C101 69.1 100.9 66.9 102 64.8C103.2 62.5 106.1 61.8 108.2 63.4C108.3 63.5 108.5 63.6 108.8 63.8C108.8 62.9 108.8 62.1 108.8 61.3C108.8 60.7 108.8 60 108.8 59.1ZM108.9 68C108.8 67.4 108.7 66.8 108.5 66.2C108.2 65.3 107.5 64.8 106.5 64.8C105.5 64.8 104.8 65.2 104.4 66.1C103.9 67.4 103.9 68.6 104.4 69.9C104.8 70.9 105.6 71.3 106.7 71.2C107.6 71.1 108.3 70.6 108.6 69.6C108.8 69.1 108.8 68.6 108.9 68Z" fill="#E5E5E6"/>
    <path d="M55.4002 73.1C54.5002 73.1 53.8002 73.1 52.9002 73.1C52.8002 72.8 52.8002 72.5 52.7002 72.2C52.6002 72.2 52.5002 72.3 52.4002 72.3C50.1002 74.2 46.9002 73.6 45.7002 70.9C44.9002 69.1 44.8002 67.2 45.6002 65.4C46.8002 62.7 49.8002 61.9 52.2002 63.7C52.3002 63.8 52.4002 63.8 52.6002 64C52.6002 62.4 52.6002 60.9 52.6002 59.3C53.6002 59.3 54.4002 59.3 55.4002 59.3C55.4002 63.8 55.4002 68.4 55.4002 73.1ZM47.8002 68C48.0002 68.6 48.1002 69.4 48.4002 70.1C48.8002 71 49.6002 71.3 50.6002 71.2C51.5002 71.1 52.1002 70.6 52.4002 69.8C52.8002 68.7 52.8002 67.5 52.4002 66.4C52.1002 65.4 51.4002 64.9 50.4002 64.8C49.3002 64.8 48.6002 65.2 48.2002 66.2C48.1002 66.8 48.0002 67.3 47.8002 68Z" fill="#E5E5E6"/>
    <path d="M70.6002 63C70.6002 63.3 70.7002 63.6 70.7002 63.8C70.8002 63.8 70.9002 63.8 70.9002 63.8C73.4002 61.7 76.8002 62.6 77.9002 65.6C78.5002 67.4 78.5002 69.2 77.7002 70.9C76.5002 73.4 73.5002 74 71.3002 72.3C71.2002 72.2 71.1002 72.1 70.8002 71.9C70.8002 73.5 70.8002 75 70.8002 76.5C69.9002 76.5 69.0002 76.5 68.2002 76.5C68.0002 75.8 67.9002 64.6 68.1002 62.9C68.9002 63 69.7002 63 70.6002 63ZM75.6002 67.9C75.5002 67.3 75.3002 66.7 75.1002 66.1C74.7002 65.2 74.0002 64.8 73.0002 64.8C72.1002 64.8 71.4002 65.3 71.1002 66.2C70.7002 67.3 70.7002 68.5 71.0002 69.6C71.3002 70.7 72.1002 71.2 73.2002 71.2C74.3002 71.2 75.0002 70.7 75.4002 69.5C75.4002 69.1 75.5002 68.5 75.6002 67.9Z" fill="#E5E5E6"/>
    <path d="M230 88.1C231.3 88.1 232.4 88.1 233.7 88.1C234.5 91.1 235.4 94 236.2 97C237.3 94.1 238.1 91.1 239 88.1C240.1 88.1 241.2 88.1 242.5 88.1C241 92.3 239.5 96.5 238 100.6C236.8 100.6 235.7 100.6 234.5 100.6C233 96.5 231.5 92.3 230 88.1Z" fill="#E5E5E6"/>
    <path d="M200.3 73C199.5 73 198.6 73 197.7 73C197.6 72.8 197.5 72.5 197.4 72.2C196.2 73.1 194.8 73.4 193.4 73.2C191.4 73 190.3 71.4 190.7 69.5C190.9 68.6 191.5 67.9 192.3 67.6C193 67.4 193.7 67.3 194.4 67.1C195.1 67 195.8 66.9 196.5 66.7C197.1 66.5 197.3 66.2 197.3 65.6C197.3 65 197 64.7 196.4 64.5C195.1 64.1 194.2 64.5 193.5 65.9C192.7 65.9 191.8 65.9 190.9 65.9C190.9 65.6 190.9 65.3 191 65.1C191.3 64.1 191.9 63.4 192.8 63.1C194.6 62.4 196.5 62.4 198.4 63C199.6 63.4 200.1 64.3 200.1 65.5C200.1 67 200.1 68.6 200.1 70.1C200.1 71.2 200.2 72.1 200.3 73ZM197.3 68.3C196.9 68.4 196.6 68.5 196.3 68.5C196 68.6 195.6 68.6 195.3 68.7C194.9 68.8 194.5 68.9 194.1 69.1C193.6 69.4 193.4 69.9 193.5 70.5C193.6 71.1 194 71.3 194.5 71.4C196.3 71.7 197.3 70.9 197.3 69.1C197.3 68.9 197.3 68.6 197.3 68.3Z" fill="#E5E5E6"/>
    <path d="M292.4 98.3C292.4 99.2 292.4 99.9 292.4 100.6C291.2 100.9 290.1 100.9 289 100.7C288 100.5 287.3 99.9 287.2 98.8C287.2 98.5 287.1 98.1 287.1 97.7C287.1 95.7 287.1 93.6 287.1 91.6C287.1 91.3 287.1 90.9 287.1 90.5C286.5 90.5 286 90.4 285.4 90.4C285.4 89.7 285.4 89 285.4 88.2C285.9 88.2 286.4 88.1 287 88.1C287 87 287 85.8 287 84.6C288.2 84.6 289.2 84.6 290.3 84.6C290.3 85.8 290.3 86.9 290.3 88.1C291 88.1 291.6 88.1 292.2 88.1C292.2 88.9 292.2 89.6 292.2 90.4C291.6 90.4 291.1 90.4 290.4 90.4C290.4 90.8 290.3 91 290.3 91.3C290.3 93.2 290.3 95.1 290.3 97C290.3 98.2 290.4 98.2 291.6 98.3C291.9 98.2 292.1 98.3 292.4 98.3Z" fill="#E5E5E6"/>
    <path d="M236.6 68.7C234.2 68.7 231.9 68.7 229.5 68.7C229.5 70.1 230 70.8 230.9 71.1C232.1 71.5 233.2 71.1 234.2 70C234.9 70 235.6 70 236.5 70C236.1 71.2 235.5 72.2 234.4 72.8C231.1 74.7 227 72.6 226.6 68.8C226.3 66 227.8 63.6 230.3 62.9C234 61.8 237.3 64.8 236.6 68.7ZM233.8 66.9C233.7 65.4 232.9 64.7 231.6 64.8C230.3 64.9 229.6 65.7 229.7 66.9C231 66.9 232.3 66.9 233.8 66.9Z" fill="#E5E5E6"/>
    <path d="M66.7004 68.6C64.3004 68.6 62.0004 68.6 59.6004 68.6C59.6004 69.9 60.0004 70.7 60.9004 71C62.1004 71.4 63.2004 71.1 64.2004 69.9C64.9004 69.9 65.7004 69.9 66.4004 69.9C66.1004 71.6 64.7004 73 62.9004 73.2C62.2004 73.3 61.4004 73.3 60.7004 73.2C58.9004 72.9 57.6004 71.9 57.0004 70.1C56.6004 69 56.5004 67.8 56.8004 66.7C57.3004 64.1 59.6004 62.1 63.1004 62.7C64.0004 62.9 64.7004 63.3 65.4004 64C66.4004 65.2 66.9004 66.9 66.7004 68.6ZM59.5004 66.9C60.3004 66.9 61.0004 66.9 61.7004 66.9C62.4004 66.9 63.1004 66.9 63.9004 66.9C63.8004 65.5 63.2004 64.8 62.0004 64.8C60.6004 64.7 59.8004 65.4 59.5004 66.9Z" fill="#E5E5E6"/>
    <path d="M306.7 69.9C306.2 71.7 305 72.9 303.3 73.2C302.5 73.4 301.5 73.4 300.7 73.2C298.5 72.7 297.3 71.3 296.9 69.1C296.4 66.4 297.7 63.7 300.2 62.9C303.4 61.9 306.5 63.3 306.9 67.4C306.9 67.7 306.9 68.1 306.9 68.6C304.5 68.6 302.1 68.6 299.7 68.6C299.7 69.7 299.9 70.5 300.9 70.9C301.9 71.3 303 71.3 303.8 70.5C304.4 69.8 305 69.8001 305.7 69.8001C306 69.9001 306.3 69.9 306.7 69.9ZM304 66.9C303.9 65.4 303.1 64.7001 301.8 64.8001C300.5 64.9001 299.8 65.7 299.9 66.9C301.2 66.9 302.5 66.9 304 66.9Z" fill="#E5E5E6"/>
    <path d="M326.7 68.7C324.3 68.7 322 68.7 319.6 68.7C319.6 70.1 320.1 70.8 321 71.1C322.2 71.5 323.3 71.1 324.3 70C325 70 325.7 70 326.6 70C326.2 71.5 325.3 72.6 323.8 73.1C319.7 74.3 316.1 71.8 316.7 67.2C317.1 64.1 319.8 62.2 322.9 62.9C323.6 63.1 324.4 63.5 324.9 63.9C326.4 64.9 327 66.8 326.7 68.7ZM319.6 66.9C321.1 66.9 322.4 66.9 323.8 66.9C323.8 65.6 323.1 64.9 321.9 64.8C320.6 64.7 319.8 65.4 319.6 66.9Z" fill="#E5E5E6"/>
    <path d="M89.2003 68.7C86.7003 68.7 84.4003 68.7 82.0003 68.7C81.9003 69.7 82.2003 70.5 83.1003 71C84.0003 71.5 85.4003 71.4 86.1003 70.7C86.7003 70 87.3003 70 88.0003 70C88.3003 70 88.6003 70 89.0003 70C88.7003 71.7 87.4003 73 85.7003 73.3C84.8003 73.4 83.9003 73.4 83.1003 73.3C81.0003 72.9 79.7003 71.4 79.3003 69.2C78.8003 66.5 80.2003 63.9 82.5003 63.1C85.7003 62.1 88.8003 63.5 89.3003 67.6C89.2003 67.8 89.2003 68.2 89.2003 68.7ZM82.0003 66.9C83.4003 66.9 84.8003 66.9 86.2003 66.9C86.2003 65.6 85.5003 64.9 84.3003 64.8C83.0003 64.7 82.2003 65.4 82.0003 66.9Z" fill="#E5E5E6"/>
    <path d="M122.8 68.7C120.4 68.7 118 68.7 115.7 68.7C115.6 69.9 116 70.7 116.9 71.1C118.1 71.6 119.2 71.3 120.3 70C121 70 121.8 70 122.6 70C122.1 71.5 121.2 72.6 119.7 73.1C118.6 73.5 117.5 73.5 116.4 73.2C114 72.6 112.6 70.6 112.7 67.8C112.8 65.6 113.8 63.8 115.9 63C118.9 61.9 122.1 63.2 122.7 67.1C122.9 67.6 122.8 68.1 122.8 68.7ZM115.7 66.9C117.2 66.9 118.6 67 120 66.9C119.7 65.3 119 64.7 117.6 64.8C116.4 64.9 115.8 65.6 115.7 66.9Z" fill="#E5E5E6"/>
    <path d="M150.7 69.6C151.4 67.4 152.1 65.2 152.8 63C153.8 63 154.7 63 155.6 63C155.5 63.4 155.4 63.7 155.3 64.1C154.1 67.4 152.9 70.6 151.7 73.9C150.7 76.5 149.1 77.3 146.3 76.5C146.3 75.8 146.3 75.1 146.3 74.4C146.8 74.4 147.2 74.4 147.6 74.4C148.5 74.4 149.1 73.7 148.9 72.8C148.8 72.5 148.7 72.3 148.6 72C147.6 69.4 146.6 66.7 145.6 64.1C145.5 63.8 145.4 63.5 145.2 63.1C146.2 63.1 147.1 63.1 148.2 63.1C148.9 65.3 149.7 67.5 150.4 69.7C150.6 69.6 150.7 69.6 150.7 69.6Z" fill="#E5E5E6"/>
    <path d="M261.1 73.1001C260 73.1001 259.1 73.1001 258 73.1001C258 69.3001 258 65.6001 258 61.7001C256.6 61.7001 255.2 61.7001 253.9 61.7001C253.9 60.8001 253.9 60.1001 253.9 59.3001C254.6 59.1001 264.1 59.0001 265.3 59.3001C265.3 60.0001 265.3 60.8001 265.3 61.7001C264 61.7001 262.6 61.7001 261.2 61.7001C261.1 65.5001 261.1 69.2001 261.1 73.1001Z" fill="#E5E5E6"/>
    <path d="M166.3 73.3C163.1 73.3 161.1 71.2 161.1 68C161.1 64.7 163.1 62.7 166.3 62.6C169.6 62.6 171.6 64.7 171.6 67.9C171.5 71.3 169.5 73.3 166.3 73.3ZM168.8 68C168.7 67.5 168.6 66.9 168.5 66.3C168.2 65.3 167.4 64.8 166.3 64.8C165.3 64.8 164.5 65.3 164.1 66.3C163.7 67.3 163.7 68.4 164 69.4C164.3 70.6 165.1 71.2 166.2 71.2C167.4 71.2 168.2 70.7 168.5 69.5C168.7 69 168.7 68.5 168.8 68Z" fill="#E5E5E6"/>
    <path d="M37.2004 73.1C36.2004 73.1 35.4004 73.1 34.4004 73.1C34.4004 69.7 34.4004 66.4 34.4004 63C35.3004 63 36.1004 63 37.0004 63C37.0004 63.3 37.1004 63.6 37.1004 64C37.2004 63.9 37.4004 63.9 37.4004 63.8C38.5004 62.6 39.9004 62.5 41.4004 62.7C42.7004 62.9 43.5004 63.8 43.7004 65.1C43.8004 65.5 43.8004 66 43.8004 66.5C43.8004 68.4 43.8004 70.2 43.8004 72.1C43.8004 72.4 43.8004 72.6 43.8004 73C42.9004 73 42.1004 73 41.2004 73C41.2004 72.7 41.1004 72.5 41.1004 72.2C41.1004 70.7 41.1004 69.2 41.1004 67.7C41.1004 67.3 41.1004 66.9 41.1004 66.5C41.0004 65.4 40.4004 64.9 39.5004 64.8C38.4004 64.7 37.6004 65.2 37.4004 66.3C37.3004 66.8 37.3004 67.3 37.3004 67.8C37.3004 69.2 37.3004 70.5 37.3004 71.9C37.2004 72.3 37.2004 72.6 37.2004 73.1Z" fill="#E5E5E6"/>
    <path d="M211.3 73.1C210.4 73.1 209.5 73.1 208.6 73.1C208.6 72.8 208.5 72.5 208.5 72.2C208.5 70.7 208.5 69.2 208.5 67.8C208.5 67.4 208.5 67 208.4 66.5C208.3 65.6 207.8 65.1 206.9 64.9C205.9 64.8 205.1 65.2 204.8 66.1C204.6 66.6 204.6 67.2 204.6 67.8C204.6 69.2 204.6 70.6 204.6 72C204.6 72.3 204.6 72.7 204.6 73.1C203.6 73.1 202.8 73.1 201.9 73.1C201.9 69.8 201.9 66.5 201.9 63C202.3 63 202.7 63 203.1 63C203.5 63 203.9 63 204.4 63C204.4 63.4 204.5 63.7 204.5 64.1C204.7 63.9 204.9 63.8 205.1 63.7C206.3 62.7 208.2 62.4 209.7 63.1C210.5 63.5 211 64.1 211.2 64.9C211.3 65.4 211.4 65.9 211.4 66.5C211.4 68.5 211.4 70.6 211.4 72.6C211.4 72.7 211.3 72.8 211.3 73.1Z" fill="#E5E5E6"/>
    <path d="M124.2 72.9999C124.2 69.5999 124.2 66.3999 124.2 62.9999C125.1 62.9999 125.9 62.9999 126.8 62.9999C126.8 63.2999 126.9 63.6999 126.9 64.1999C128 62.7999 129.4 62.4999 130.9 62.6999C132.3 62.8999 133.1 63.5999 133.5 64.9999C133.6 65.3999 133.7 65.7999 133.7 66.1999C133.7 68.2999 133.7 70.3999 133.7 72.4999C133.7 72.5999 133.7 72.7999 133.6 72.9999C132.7 72.9999 131.9 72.9999 130.9 72.9999C130.9 72.5999 130.9 72.2999 130.9 71.8999C130.9 70.3999 130.9 68.8999 130.9 67.4999C130.9 67.0999 130.9 66.7 130.8 66.3C130.6 65.3 130 64.8 129.1 64.8C128.1 64.8 127.4 65.2999 127.2 66.1999C127.1 66.7999 127 67.4999 127 68.0999C127 69.6999 127 71.2999 127 72.8999C126 72.9999 125.1 72.9999 124.2 72.9999Z" fill="#E5E5E6"/>
    <path d="M337.5 73C336.6 73 335.8 73 334.8 73C334.8 72.5 334.8 72.1 334.8 71.6C334.8 69.9 334.8 68.2 334.7 66.5C334.6 65.3 334.1 64.8 333.1 64.8C332 64.7 331.3 65.3 331 66.4C330.9 67 330.8 67.6 330.8 68.2C330.8 69.8 330.8 71.4 330.8 73C329.9 73 329 73 328.1 73C328.1 69.7 328.1 66.4 328.1 63C328.9 63 329.7 63 330.6 63C330.6 63.3 330.7 63.7 330.8 64.1C331 64 331.1 63.9 331.2 63.8C332.4 62.6 333.8 62.5 335.3 62.8C336.4 63 337.1 63.8 337.4 64.8C337.5 65.3 337.6 65.8 337.6 66.3C337.6 68.4 337.6 70.5 337.6 72.6C337.6 72.8 337.5 72.9 337.5 73Z" fill="#E5E5E6"/>
    <path d="M99.8996 73.0001C98.9996 73.0001 98.0996 73.0001 97.1996 73.0001C97.1996 71.4001 97.1996 69.8 97.1996 68.2C97.1996 67.6 97.1996 67.0001 97.0996 66.4001C96.8996 65.3001 96.3996 64.8001 95.4996 64.8001C94.4996 64.8001 93.6996 65.2001 93.4996 66.3001C93.3996 66.8001 93.2996 67.3001 93.2996 67.8001C93.2996 69.5001 93.2996 71.1001 93.2996 72.8001C93.2996 72.9001 93.2996 72.9 93.1996 73.1C92.3996 73.1 91.4996 73.1 90.5996 73.1C90.5996 69.8001 90.5996 66.5 90.5996 63.1C91.3996 63.1 92.1996 63.1 93.0996 63.1C93.0996 63.4 93.1996 63.8 93.1996 64.2C93.3996 64.1 93.4996 64.0001 93.5996 63.9001C94.7996 62.7001 96.2996 62.6001 97.7996 63.0001C98.8996 63.3001 99.4996 64.0001 99.7996 65.0001C99.8996 65.5001 99.9996 66.0001 99.9996 66.5001C99.9996 68.6001 99.9996 70.7 99.9996 72.7C99.9996 72.7 99.8996 72.8001 99.8996 73.0001Z" fill="#E5E5E6"/>
    <path d="M221.7 65.1C220.2 65.1 218.8 65.1 217.2 65.1C217.2 64.4 217.2 63.7 217.2 63C220 63 222.8 63 225.6 63C225.8 64.2 225.8 65.1 224.8 66.1C223.6 67.3 222.5 68.7 221.3 69.9C221.1 70.2 220.8 70.5 220.5 70.9C222.4 70.9 224.1 70.9 225.9 70.9C225.9 71.6 225.9 72.3 225.9 73C222.9 73 219.8 73 216.8 73C216.6 71.9 216.6 71 217.5 70C219 68.5 220.4 66.8 221.8 65.2C221.7 65.2 221.7 65.1 221.7 65.1Z" fill="#E5E5E6"/>
    <path d="M147.3 83.6C147.3 89.3 147.3 94.9 147.3 100.6C146.2 100.6 145.2 100.6 144.2 100.6C144 99.8 143.9 84.7 144.2 83.6C145.2 83.6 146.2 83.6 147.3 83.6Z" fill="#E5E5E6"/>
    <path d="M153.8 100.6C152.8 100.6 151.8 100.6 150.8 100.6C150.6 99.9 150.5 85.1 150.7 83.6C151.7 83.6 152.7 83.6 153.7 83.6C153.9 84.4 154 98.9 153.8 100.6Z" fill="#E5E5E6"/>
    <path d="M264.9 87.6C264.9 88.9 264.9 89.9 264.9 91.1C264.5 91.1 264.1 91.1 263.7 91.1C262.1 91.2 261.2 91.9 261 93.5C260.9 94 260.9 94.6 260.9 95.1C260.9 96.9 260.9 98.8 260.9 100.7C259.8 100.7 258.8 100.7 257.7 100.7C257.7 96.5 257.7 92.4 257.7 88.2C258.7 88.2 259.7 88.2 260.7 88.2C260.7 88.8 260.8 89.4 260.8 90.1C261.6 89.2 262.1 88.3 263.1 88C263.6 87.8 264.2 87.7 264.9 87.6Z" fill="#E5E5E6"/>
    <path d="M33 88.0999C34 88.0999 35 88.0999 36 88.0999C36 88.6999 36.1 89.2999 36.1 89.8999C36.7 89.2999 37.2 88.6999 37.8 88.1999C38.5 87.6999 39.3 87.5999 40.2 87.7999C40.2 88.8999 40.2 89.8999 40.2 90.9999C39.8 90.9999 39.5 90.9999 39.2 91.0999C37.3 91.1999 36.4 91.9999 36.3 93.8999C36.2 95.7999 36.3 97.5999 36.3 99.4999C36.3 99.8999 36.3 100.3 36.3 100.7C35.1 100.7 34.1 100.7 33 100.7C33 96.3999 33 92.2999 33 88.0999Z" fill="#E5E5E6"/>
    <path d="M6.50039 69.8C5.70039 71 5.00039 72 4.30039 73C3.40039 73 2.50039 73 1.40039 73C2.60039 71.2 3.80039 69.5 5.00039 67.7C4.00039 66.2 2.90039 64.7 1.70039 63C2.70039 63 3.50039 63 4.40039 63C4.70039 63 4.90039 63.3 5.10039 63.5C5.60039 64.1 6.00039 64.8 6.60039 65.6C7.10039 64.9 7.60039 64.2 8.00039 63.6C8.30039 63.1 8.60039 62.9 9.20039 63C9.90039 63.1 10.5004 63 11.4004 63C10.3004 64.7 9.20039 66.1 8.10039 67.7C9.30039 69.4 10.5004 71.2 11.8004 73.1C10.8004 73.1 9.90039 73.1 9.10039 73.1C8.80039 73.1 8.60039 72.8 8.40039 72.6C7.70039 71.7 7.10039 70.8 6.50039 69.8Z" fill="#E5E5E6"/>
    <path d="M312 69.6C312.7 67.4 313.4 65.3 314 63.1C314.9 63.1 315.8 63.1 316.8 63.1C315.7 66.5 314.5 69.8 313.4 73.1C312.4 73.1 311.3 73.1 310.3 73.1C309.2 69.8 308 66.5 306.9 63.1C307.9 63.1 308.8 63.1 309.8 63.1C310.5 65.3 311.2 67.5 311.9 69.7C311.9 69.6 311.9 69.6 312 69.6Z" fill="#E5E5E6"/>
    <path d="M340 60C341.1 60 341.9 60 342.9 60C342.9 61 342.9 61.9 342.9 63C343.6 63 344.2 63 344.8 63C344.8 63.6 344.8 64.2 344.8 64.8C344.2 64.8 343.6 64.8 343 64.8C343 65.2 342.9 65.5 342.9 65.8C342.9 67.1 342.9 68.4 342.9 69.7C342.9 70.8 343.1 71 344.2 71C344.4 71 344.6 71 344.8 71C344.8 71.7 344.8 72.4 344.8 73.1C343.8 73.4 342.8 73.3 341.8 73.1C340.9 72.9 340.2 72.3 340.1 71.3C340 70.7 340 70.2 340 69.6C340 68.1 340 66.5 340 64.9C339.4 64.9 339 64.8 338.4 64.8C338.4 64.2 338.4 63.7 338.4 63C338.9 63 339.4 62.9 340 62.9C340 61.9 340 61 340 60Z" fill="#E5E5E6"/>
    <path d="M136.1 64.9C135.5 64.9 135 64.8 134.5 64.8C134.5 64.2 134.5 63.6 134.5 63C135 63 135.5 62.9 136.1 62.9C136.1 61.9 136.1 61 136.1 60C137.1 60 137.9 60 138.9 60C138.9 61 138.9 61.9 138.9 62.9C139.6 62.9 140.2 63 140.9 63C140.9 63.6 140.9 64.1 140.9 64.8C140.2 64.8 139.6 64.9 138.9 64.9C138.9 66.7 138.9 68.4 138.9 70.1C138.9 70.7 139.2 70.9 139.8 71C140 71 140.2 71 140.3 71C140.4 71 140.6 71 140.8 71C140.8 71.7 140.8 72.3 140.8 73C139.7 73.3 138.6 73.2 137.6 73C136.6 72.7 136.1 72.1 136.1 71C136.1 69.3 136.1 67.7 136.1 66C136.1 65.7 136.1 65.3 136.1 64.9Z" fill="#E5E5E6"/>
    <path d="M283.4 100.6C282.3 100.6 281.2 100.6 280.2 100.6C280.2 96.4 280.2 92.3 280.2 88.1C281.3 88.1 282.3 88.1 283.4 88.1C283.4 92.3 283.4 96.4 283.4 100.6Z" fill="#E5E5E6"/>
    <path d="M224.6 88.1C225.7 88.1 226.7 88.1 227.7 88.1C227.9 88.9 228 99.5 227.7 100.7C226.7 100.7 225.6 100.7 224.5 100.7C224.6 96.4 224.6 92.3 224.6 88.1Z" fill="#E5E5E6"/>
    <path d="M84.6997 88.1C85.7997 88.1 86.7997 88.1 87.8997 88.1C87.8997 92.3 87.8997 96.4 87.8997 100.7C86.8997 100.8 85.7997 100.8 84.7997 100.7C84.4997 99.8 84.3997 89.4 84.6997 88.1Z" fill="#E5E5E6"/>
    <path d="M142 59.1C142.9 59.1 143.7 59.1 144.5 59.1C144.7 59.9 144.8 71.2 144.6 73C143.8 73 142.9 73 142 73C141.9 72.3 141.8 60.8 142 59.1Z" fill="#E5E5E6"/>
    <path d="M175.4 73C174.4 73 173.6 73 172.6 73C172.6 69.7 172.6 66.4 172.6 62.9C173 62.9 173.4 62.9 173.8 62.9C174.2 62.9 174.6 62.9 175.1 62.9C175.1 63.4 175.2 63.9 175.2 64.5C176.2 63.3 177.3 62.5 178.9 62.8C178.9 63.6 178.9 64.4 178.9 65.3C178.5 65.3 178.2 65.3 177.9 65.3C176.4 65.3 175.5 66.1 175.3 67.6C175.2 68.6 175.2 69.7 175.2 70.8C175.4 71.5 175.4 72.2 175.4 73Z" fill="#E5E5E6"/>
    <path d="M212.8 63C213.7 63 214.6 63 215.5 63C215.6 66.3 215.5 69.7 215.5 73C214.5 73 213.7 73 212.7 73C212.8 69.7 212.8 66.4 212.8 63Z" fill="#E5E5E6"/>
    <path d="M29.7998 63C30.6998 63 31.4998 63 32.3998 63C32.3998 66.3 32.3998 69.6 32.3998 73C31.5998 73 30.6998 73 29.7998 73C29.7998 69.7 29.7998 66.4 29.7998 63Z" fill="#E5E5E6"/>
    <path d="M24.8996 65.1C24.8996 65.8 24.8996 66.4 24.8996 67C23.9996 67.2 15.9996 67.2 15.0996 67C15.0996 66.4 15.0996 65.8 15.0996 65.1C18.3996 65.1 21.5996 65.1 24.8996 65.1Z" fill="#E5E5E6"/>
    <path d="M15.0996 71.2999C15.0996 70.5999 15.0996 69.9999 15.0996 69.3999C15.7996 69.1999 23.3996 69.0999 24.8996 69.2999C24.8996 69.5999 24.9996 69.8999 24.9996 70.1999C24.9996 70.4999 24.9996 70.7999 24.9996 71.2999C21.5996 71.2999 18.3996 71.2999 15.0996 71.2999Z" fill="#E5E5E6"/>
    <path d="M283.4 86.6C282.3 86.6 281.3 86.6 280.2 86.6C280.2 85.6 280.2 84.7 280.2 83.7C281.2 83.5 282.3 83.6 283.4 83.6C283.4 84.6 283.4 85.5 283.4 86.6Z" fill="#E5E5E6"/>
    <path d="M227.8 86.6C226.7 86.6 225.7 86.6 224.6 86.6C224.6 85.6 224.6 84.7 224.6 83.7C225.6 83.5 226.7 83.6 227.8 83.6C227.8 84.6 227.8 85.6 227.8 86.6Z" fill="#E5E5E6"/>
    <path d="M84.5996 83.6C85.6996 83.6 86.6996 83.6 87.7996 83.6C87.7996 84.6 87.7996 85.5 87.7996 86.5C86.7996 86.5 85.6996 86.5 84.5996 86.5C84.5996 85.6 84.5996 84.7 84.5996 83.6Z" fill="#E5E5E6"/>
    <path d="M215.5 59.2C215.5 59.9 215.5 60.6 215.5 61.4C214.6 61.4 213.7 61.4 212.8 61.4C212.8 60.7 212.8 60 212.8 59.2C213.7 59.2 214.5 59.2 215.5 59.2Z" fill="#E5E5E6"/>
    <path d="M29.7998 59.2C30.6998 59.2 31.4998 59.2 32.3998 59.2C32.3998 59.9 32.3998 60.6 32.3998 61.4C31.4998 61.4 30.6998 61.4 29.7998 61.4C29.7998 60.6 29.7998 59.9 29.7998 59.2Z" fill="#E5E5E6"/>
</svg>
