<svg width="28" height="23" viewBox="0 0 28 23" fill="none" xmlns="http://www.w3.org/2000/svg">
    <path d="M24.7768 6.41996C24.7933 6.65864 24.7933 6.89733 24.7933 7.13821C24.7933 14.4781 19.2211 22.9431 9.03206 22.9431V22.9387C6.02219 22.9431 3.07484 22.0786 0.541016 20.4485C0.978676 20.5013 1.41853 20.5277 1.85948 20.5288C4.35381 20.531 6.77685 19.6917 8.73919 18.1463C6.3688 18.1012 4.29019 16.5514 3.56405 14.2889C4.3944 14.4495 5.24997 14.4165 6.06496 14.1932C3.48069 13.6696 1.62145 11.3927 1.62145 8.74851C1.62145 8.72431 1.62145 8.70121 1.62145 8.67812C2.39147 9.10819 3.25363 9.34687 4.13553 9.37327C1.70153 7.74207 0.951253 4.49508 2.42109 1.95644C5.23352 5.42672 9.38306 7.53639 13.8375 7.75967C13.3911 5.8304 14.001 3.80872 15.4401 2.45251C17.6712 0.349441 21.1801 0.457235 23.2774 2.69339C24.518 2.44811 25.707 1.99164 26.7951 1.34488C26.3816 2.6307 25.5162 3.72293 24.36 4.41699C25.458 4.28719 26.5308 3.99241 27.541 3.54254C26.7973 4.66007 25.8606 5.63351 24.7768 6.41996Z" fill="#4F4F4F"/>
</svg>
